<svg width="182" height="44" viewBox="0 0 182 44" fill="none" xmlns="http://www.w3.org/2000/svg">
<path d="M55.72 36V31.16H69.84V36H55.72ZM55.72 12.84V8H69.84V12.84H55.72ZM55.72 23.52V18.76H69.04V23.52H55.72ZM52.04 8H57.56V36H52.04V8ZM75.4775 8H81.3175V36H75.4775V8ZM84.9975 36H79.1575V30.8H84.7975C86.0242 30.8 87.1842 30.64 88.2775 30.32C89.3708 29.9733 90.3308 29.44 91.1575 28.72C91.9842 28 92.6242 27.0933 93.0775 26C93.5575 24.88 93.7975 23.5467 93.7975 22C93.7975 20.4533 93.5575 19.1333 93.0775 18.04C92.6242 16.92 91.9842 16 91.1575 15.28C90.3308 14.56 89.3708 14.04 88.2775 13.72C87.1842 13.3733 86.0242 13.2 84.7975 13.2H79.1575V8H84.9975C87.9308 8 90.4908 8.57333 92.6775 9.72C94.8908 10.8667 96.6108 12.4933 97.8375 14.6C99.0642 16.68 99.6775 19.1467 99.6775 22C99.6775 24.8533 99.0642 27.3333 97.8375 29.44C96.6108 31.52 94.8908 33.1333 92.6775 34.28C90.4908 35.4267 87.9308 36 84.9975 36ZM103.91 8H109.63V26.44C109.63 28.04 110.044 29.3333 110.87 30.32C111.724 31.28 112.977 31.76 114.63 31.76C116.284 31.76 117.524 31.28 118.35 30.32C119.204 29.3333 119.63 28.04 119.63 26.44V8H125.35V26.8C125.35 28.4533 125.084 29.9067 124.55 31.16C124.017 32.4133 123.257 33.4667 122.27 34.32C121.31 35.1733 120.177 35.8133 118.87 36.24C117.564 36.6933 116.15 36.92 114.63 36.92C113.084 36.92 111.657 36.6933 110.35 36.24C109.044 35.8133 107.91 35.1733 106.95 34.32C105.99 33.4667 105.244 32.4133 104.71 31.16C104.177 29.9067 103.91 28.4533 103.91 26.8V8ZM137.541 22.96H143.581L152.701 36H145.941L137.541 22.96ZM131.181 8H136.901V36H131.181V8ZM134.661 12.88V8H140.581C142.794 8 144.674 8.37333 146.221 9.12C147.767 9.86666 148.954 10.9067 149.781 12.24C150.607 13.5733 151.021 15.1333 151.021 16.92C151.021 18.68 150.607 20.24 149.781 21.6C148.954 22.9333 147.767 23.9733 146.221 24.72C144.674 25.4667 142.794 25.84 140.581 25.84H134.661V21.28H140.221C141.234 21.28 142.101 21.12 142.821 20.8C143.567 20.4533 144.141 19.9733 144.541 19.36C144.941 18.72 145.141 17.96 145.141 17.08C145.141 16.2 144.941 15.4533 144.541 14.84C144.141 14.2 143.567 13.72 142.821 13.4C142.101 13.0533 141.234 12.88 140.221 12.88H134.661ZM159.865 29.64L160.545 25.12H173.985L174.665 29.64H159.865ZM167.185 17.08L162.985 26.72L163.105 28L159.425 36H152.985L167.185 6.36L181.385 36H174.905L171.305 28.24L171.385 26.8L167.185 17.08Z" fill="white"/>
<path d="M22.0013 15.8762L14.099 13.2485C12.9593 16.3344 10.8765 20.6525 7.11255 25.4943C7.11255 25.4943 15.9358 31.604 21.7491 44.0002C21.2263 39.8463 19.9457 33.1153 16.8826 28.2448C16.9457 28.3218 18.3326 29.9468 22.0013 30.0421C25.6688 29.9456 27.0557 28.3206 27.12 28.2448C24.0569 33.1153 22.7763 39.8463 22.2535 44.0002C28.0668 31.604 36.8901 25.4943 36.8901 25.4943C33.1262 20.6513 31.0433 16.3344 29.9037 13.2485L22.0013 15.8762ZM23.6503 27.7177C23.6404 28.5606 22.9049 29.2394 22.0013 29.2462C21.0977 29.2394 20.3622 28.5618 20.3524 27.7177C20.3499 27.5098 20.3919 27.3123 20.4686 27.1308L19.1571 26.5876L21.9865 25.3427L22.0013 25.3485L22.0161 25.3427L24.8456 26.5876L23.5341 27.1308C23.6119 27.3123 23.6527 27.5098 23.6503 27.7177Z" fill="white"/>
<path d="M40.3486 18.2728L39.7862 8.71433L44 7.31324L22 0L0 7.31324L22 14.6276L38.9258 9.00029L38.3807 18.2728C37.5501 18.6207 36.9728 19.3971 36.9728 20.2986C36.9728 21.5263 38.0433 22.5208 39.3646 22.5208C40.686 22.5208 41.7565 21.5263 41.7565 20.2986C41.7565 19.3971 41.1792 18.6219 40.3486 18.2728Z" fill="#F20F10"/>
</svg>
